<svg width="260" height="56" viewBox="0 0 260 56" fill="none" xmlns="http://www.w3.org/2000/svg">
  <!-- Icon Box -->
  <rect width="52" height="52" rx="14" fill="#2563eb" x="0" y="2"/>
  <!-- Auto Body -->
  <path d="M13 30 L18 22 Q19.5 20 21.5 20 L30.5 20 Q32.5 20 34 22 L39 30 L39 36 Q39 37.5 37.5 37.5 L14.5 37.5 Q13 37.5 13 36 Z" fill="white" opacity="0.95"/>
  <!-- Räder -->
  <circle cx="19" cy="38" r="3" fill="#2563eb" stroke="white" stroke-width="1.5"/>
  <circle cx="33" cy="38" r="3" fill="#2563eb" stroke="white" stroke-width="1.5"/>
  <!-- Fenster -->
  <path d="M17 24 L19.5 21 L32.5 21 L35 24 Z" fill="#2563eb" opacity="0.3"/>
  <!-- Linie -->
  <rect x="13" y="27" width="26" height="1.5" fill="#2563eb" opacity="0.2"/>
  <!-- Text KFZ-Docs -->
  <text x="64" y="26" font-family="system-ui, -apple-system, BlinkMacSystemFont, sans-serif" font-size="22" font-weight="800" fill="#111111" letter-spacing="-0.5">KFZ-</text>
  <text x="116" y="26" font-family="system-ui, -apple-system, BlinkMacSystemFont, sans-serif" font-size="22" font-weight="800" fill="#2563eb" letter-spacing="-0.5">Docs</text>
  <!-- Trennlinie -->
  <rect x="64" y="32" width="170" height="1" fill="#e5e7eb"/>
  <!-- Untertitel -->
  <text x="64" y="44" font-family="system-ui, -apple-system, BlinkMacSystemFont, sans-serif" font-size="9" font-weight="500" fill="#9ca3af" letter-spacing="3">ONLINE ZULASSUNG · DEUTSCHLAND</text>
</svg>
